<svg width="590" height="160" viewBox="0 0 590 160" fill="none" xmlns="http://www.w3.org/2000/svg">
<path d="M110 54H529C555.51 54 577 75.4903 577 102C577 128.51 555.51 150 529 150H110C83.4903 150 62 128.51 62 102C62 75.4903 83.4903 54 110 54Z" stroke="black" stroke-width="4"/>
<path d="M103.485 145.6C127.297 145.6 146.6 126.297 146.6 102.486C146.6 78.6743 127.297 59.3713 103.485 59.3713C79.674 59.3713 60.3711 78.6743 60.3711 102.486C60.3711 126.297 79.674 145.6 103.485 145.6Z" stroke="black" stroke-width="7.18571" stroke-miterlimit="10"/>
<path d="M122.159 124.043C120.265 120.767 117.542 118.047 114.265 116.156C110.987 114.265 107.27 113.27 103.486 113.27C99.7016 113.269 95.9842 114.265 92.7066 116.156C89.429 118.047 86.7065 120.767 84.8125 124.043" stroke="black" stroke-width="7.18571" stroke-linecap="round" stroke-linejoin="round"/>
<path d="M87.318 98.8928C90.2944 98.8928 92.7073 96.48 92.7073 93.5035C92.7073 90.5271 90.2944 88.1143 87.318 88.1143C84.3416 88.1143 81.9287 90.5271 81.9287 93.5035C81.9287 96.48 84.3416 98.8928 87.318 98.8928Z" fill="black"/>
<path d="M119.654 98.8928C122.63 98.8928 125.043 96.48 125.043 93.5035C125.043 90.5271 122.63 88.1143 119.654 88.1143C116.678 88.1143 114.265 90.5271 114.265 93.5035C114.265 96.48 116.678 98.8928 119.654 98.8928Z" fill="black"/>
<path d="M327.5 145.6C351.311 145.6 370.614 126.297 370.614 102.486C370.614 78.6743 351.311 59.3713 327.5 59.3713C303.689 59.3713 284.386 78.6743 284.386 102.486C284.386 126.297 303.689 145.6 327.5 145.6Z" stroke="black" stroke-width="7.18571" stroke-miterlimit="10"/>
<path d="M309.536 116.857H345.465" stroke="black" stroke-width="7.18571" stroke-linecap="round" stroke-linejoin="round"/>
<path d="M311.333 98.8928C314.309 98.8928 316.722 96.48 316.722 93.5035C316.722 90.5271 314.309 88.1143 311.333 88.1143C308.356 88.1143 305.943 90.5271 305.943 93.5035C305.943 96.48 308.356 98.8928 311.333 98.8928Z" fill="black"/>
<path d="M343.669 98.8928C346.645 98.8928 349.058 96.48 349.058 93.5035C349.058 90.5271 346.645 88.1143 343.669 88.1143C340.692 88.1143 338.279 90.5271 338.279 93.5035C338.279 96.48 340.692 98.8928 343.669 98.8928Z" fill="black"/>
<path d="M532.485 145.6C556.297 145.6 575.6 126.297 575.6 102.486C575.6 78.6743 556.297 59.3713 532.485 59.3713C508.674 59.3713 489.371 78.6743 489.371 102.486C489.371 126.297 508.674 145.6 532.485 145.6Z" stroke="black" stroke-width="7.18571" stroke-linecap="round" stroke-linejoin="round"/>
<path d="M551.159 113.262C549.265 116.538 546.542 119.258 543.265 121.149C539.987 123.04 536.27 124.036 532.486 124.036C528.702 124.036 524.984 123.04 521.707 121.15C518.429 119.259 515.707 116.539 513.812 113.263" stroke="black" stroke-width="7.18571" stroke-linecap="round" stroke-linejoin="round"/>
<path d="M516.318 98.8928C519.294 98.8928 521.707 96.48 521.707 93.5035C521.707 90.5271 519.294 88.1143 516.318 88.1143C513.342 88.1143 510.929 90.5271 510.929 93.5035C510.929 96.48 513.342 98.8928 516.318 98.8928Z" fill="black"/>
<path d="M548.654 98.8928C551.63 98.8928 554.043 96.48 554.043 93.5035C554.043 90.5271 551.63 88.1143 548.654 88.1143C545.678 88.1143 543.265 90.5271 543.265 93.5035C543.265 96.48 545.678 98.8928 548.654 98.8928Z" fill="black"/>
<path d="M502.01 22.6269C501.015 22.146 500.517 21.4081 500.517 20.4132C500.517 19.8992 500.708 19.4515 501.089 19.0701C501.487 18.6721 501.976 18.4068 502.557 18.2742C501.661 17.4783 501.214 16.4336 501.214 15.1402C501.214 13.8468 501.67 12.8022 502.582 12.0063C503.51 11.2103 504.605 10.8124 505.865 10.8124C507.125 10.8124 508.195 11.1108 509.073 11.7078C509.19 10.8289 509.538 10.1242 510.118 9.5936C510.715 9.06298 511.494 8.79767 512.456 8.79767L512.282 10.7377C510.823 10.7377 510.06 11.3513 509.994 12.5783C510.574 13.2913 510.864 14.1453 510.864 15.1402C510.864 16.417 510.4 17.47 509.471 18.2991C508.559 19.1116 507.415 19.5178 506.039 19.5178C505.094 19.5178 504.256 19.3271 503.527 18.9457C503.195 19.0121 502.897 19.1696 502.631 19.4183C502.366 19.6505 502.233 19.9738 502.233 20.3884C502.233 21.2672 502.963 21.7066 504.422 21.7066H509.049C510.16 21.7066 511.038 21.9471 511.685 22.4279C512.332 22.8922 512.655 23.5472 512.655 24.3929C512.655 25.6531 512.017 26.7558 510.74 27.7009C509.48 28.6461 507.88 29.1187 505.939 29.1187C503.999 29.1187 502.474 28.7539 501.363 28.0243C500.252 27.3113 499.696 26.4076 499.696 25.3132C499.696 24.6001 499.904 24.0198 500.318 23.5721C500.749 23.1244 501.313 22.8093 502.01 22.6269ZM501.637 25.2385C501.637 25.8687 501.976 26.4076 502.656 26.8553C503.353 27.3196 504.397 27.5517 505.79 27.5517C507.2 27.5517 508.369 27.2449 509.297 26.6314C510.242 26.0345 510.715 25.3297 510.715 24.5172C510.715 24.1359 510.574 23.8042 510.292 23.5223C510.027 23.257 509.612 23.1244 509.049 23.1244H504.248C503.402 23.1575 502.756 23.3565 502.308 23.7213C501.86 24.1027 501.637 24.6084 501.637 25.2385ZM508.949 15.1402C508.949 14.278 508.692 13.5815 508.178 13.0509C507.664 12.5037 506.951 12.2301 506.039 12.2301C505.144 12.2301 504.439 12.5037 503.925 13.0509C503.411 13.5815 503.154 14.278 503.154 15.1402C503.154 16.0025 503.411 16.7155 503.925 17.2793C504.455 17.8265 505.168 18.1001 506.064 18.1001C506.959 18.1001 507.664 17.8182 508.178 17.2544C508.692 16.6906 508.949 15.9859 508.949 15.1402ZM520.426 12.7773C518.552 12.7773 517.582 14.2531 517.516 17.2047V23H515.551V11.086H517.516V13.3743C518.113 11.7161 519.166 10.887 520.675 10.887C521.156 10.887 521.612 10.9616 522.043 11.1108L521.943 13.026C521.446 12.8602 520.94 12.7773 520.426 12.7773ZM529.153 21.6817C530.795 21.6817 531.731 20.9604 531.964 19.5178H533.978C533.796 20.7117 533.265 21.6403 532.386 22.3036C531.524 22.9503 530.446 23.2736 529.153 23.2736C527.561 23.2736 526.268 22.7098 525.273 21.5823C524.278 20.4381 523.78 18.9209 523.78 17.0305C523.78 15.1402 524.278 13.6313 525.273 12.5037C526.284 11.3761 527.619 10.8124 529.277 10.8124C530.952 10.8124 532.196 11.4591 533.008 12.7524C533.837 14.0458 534.127 15.6211 533.879 17.4783H525.745C525.745 18.7053 526.044 19.7168 526.641 20.5127C527.238 21.2921 528.075 21.6817 529.153 21.6817ZM530.596 12.6778C530.214 12.4788 529.75 12.3793 529.203 12.3793C528.191 12.3793 527.387 12.7276 526.79 13.424C526.21 14.1039 525.87 14.9578 525.77 15.9859H532.113C532.113 14.3277 531.607 13.225 530.596 12.6778ZM545.212 15.2895C545.212 14.2116 544.988 13.4406 544.54 12.9763C544.093 12.512 543.438 12.2799 542.575 12.2799C541.73 12.2799 541.042 12.454 540.511 12.8022C539.997 13.1338 539.74 13.6644 539.74 14.394H537.576C537.576 12.57 538.554 11.4425 540.511 11.0113C541.108 10.8787 541.755 10.8124 542.451 10.8124C543.927 10.8124 545.079 11.1855 545.908 11.9316C546.737 12.6778 547.152 13.8137 547.152 15.3392V23H545.461L545.262 21.0102C544.532 22.5191 543.214 23.2736 541.307 23.2736C540.03 23.2736 539.002 22.9171 538.223 22.2041C537.46 21.4911 537.079 20.6039 537.079 19.5427C537.079 18.4815 537.501 17.6524 538.347 17.0554C539.209 16.4585 540.279 16.16 541.556 16.16C542.832 16.16 544.051 16.3756 545.212 16.8067V15.2895ZM545.212 18.0503C544.035 17.7187 543.007 17.5529 542.128 17.5529C541.249 17.5529 540.536 17.7104 539.989 18.0255C539.441 18.3405 539.168 18.838 539.168 19.5178C539.168 21.0102 540.014 21.7564 541.705 21.7564C542.667 21.7564 543.487 21.4164 544.167 20.7366C544.864 20.0401 545.212 19.1447 545.212 18.0503ZM557.986 22.6518C556.56 23.3151 555.258 23.456 554.081 23.0746C553.235 22.8093 552.638 22.2538 552.29 21.4081C552.108 20.9936 552.016 20.4961 552.016 19.9158V12.6032H550.101V11.1108H552.016V7.80276H553.956V11.1108H557.687V12.6032H553.956V19.8909C553.956 21.1014 554.52 21.7066 555.648 21.7066C556.261 21.7066 556.95 21.5574 557.712 21.2589L557.986 22.6518ZM561.07 7.4048H563.134L562.91 18.6224H561.318L561.07 7.4048ZM562.089 23.2239C561.675 23.2239 561.327 23.0912 561.045 22.8259C560.779 22.544 560.647 22.2124 560.647 21.831C560.647 21.433 560.779 21.1014 561.045 20.8361C561.327 20.5542 561.675 20.4132 562.089 20.4132C562.52 20.4132 562.877 20.5542 563.159 20.8361C563.457 21.1014 563.607 21.433 563.607 21.831C563.607 22.2124 563.457 22.544 563.159 22.8259C562.877 23.0912 562.52 23.2239 562.089 23.2239Z" fill="black"/>
<path d="M4.40247 13.3991C5.18182 11.6746 6.51665 10.8124 8.40698 10.8124C9.81644 10.8124 10.9108 11.2767 11.6902 12.2052C12.4861 13.1338 12.8841 14.4023 12.8841 16.0108V23H10.944V16.0108C10.944 14.8666 10.6704 14.0044 10.1232 13.424C9.59258 12.8436 8.82982 12.5535 7.83491 12.5535C6.84 12.5535 6.03578 12.9597 5.42225 13.7722C4.80873 14.5847 4.48538 15.7123 4.45222 17.1549V23H2.48727V11.1108H4.17862L4.40247 13.3991ZM21.6029 21.6817C23.2445 21.6817 24.1814 20.9604 24.4136 19.5178H26.4282C26.2458 20.7117 25.7152 21.6403 24.8364 22.3036C23.9741 22.9503 22.8963 23.2736 21.6029 23.2736C20.0111 23.2736 18.7177 22.7098 17.7228 21.5823C16.7279 20.4381 16.2304 18.9209 16.2304 17.0305C16.2304 15.1402 16.7279 13.6313 17.7228 12.5037C18.7343 11.3761 20.0691 10.8124 21.7273 10.8124C23.4021 10.8124 24.6457 11.4591 25.4582 12.7524C26.2873 14.0458 26.5775 15.6211 26.3288 17.4783H18.1954C18.1954 18.7053 18.4938 19.7168 19.0908 20.5127C19.6877 21.2921 20.5251 21.6817 21.6029 21.6817ZM23.0456 12.6778C22.6642 12.4788 22.1999 12.3793 21.6527 12.3793C20.6412 12.3793 19.837 12.7276 19.24 13.424C18.6597 14.1039 18.3197 14.9578 18.2202 15.9859H24.5628C24.5628 14.3277 24.057 13.225 23.0456 12.6778ZM34.4036 21.6817C36.0452 21.6817 36.9821 20.9604 37.2143 19.5178H39.229C39.0466 20.7117 38.5159 21.6403 37.6371 22.3036C36.7748 22.9503 35.697 23.2736 34.4036 23.2736C32.8118 23.2736 31.5184 22.7098 30.5235 21.5823C29.5286 20.4381 29.0311 18.9209 29.0311 17.0305C29.0311 15.1402 29.5286 13.6313 30.5235 12.5037C31.535 11.3761 32.8698 10.8124 34.528 10.8124C36.2028 10.8124 37.4464 11.4591 38.2589 12.7524C39.088 14.0458 39.3782 15.6211 39.1295 17.4783H30.9961C30.9961 18.7053 31.2946 19.7168 31.8915 20.5127C32.4884 21.2921 33.3258 21.6817 34.4036 21.6817ZM35.8463 12.6778C35.4649 12.4788 35.0006 12.3793 34.4534 12.3793C33.4419 12.3793 32.6377 12.7276 32.0407 13.424C31.4604 14.1039 31.1204 14.9578 31.021 15.9859H37.3635C37.3635 14.3277 36.8578 13.225 35.8463 12.6778ZM50.8855 12.8768V6.06167H52.8256V23H51.2337L50.985 21.0102C50.6036 21.7564 50.0979 22.3201 49.4678 22.7015C48.8377 23.0829 48.1495 23.2736 47.4033 23.2736C45.8944 23.2736 44.6259 22.6932 43.5978 21.5325C42.5863 20.3718 42.0806 18.8628 42.0806 17.0057C42.0806 15.1319 42.578 13.6313 43.5729 12.5037C44.5844 11.3761 45.8529 10.8124 47.3785 10.8124C48.9206 10.8124 50.0896 11.5005 50.8855 12.8768ZM47.5028 12.5535C46.5411 12.5535 45.7286 12.9597 45.0653 13.7722C44.4186 14.5847 44.0953 15.6708 44.0953 17.0305C44.0953 18.3903 44.4269 19.4847 45.0902 20.3137C45.7534 21.1263 46.5494 21.5325 47.478 21.5325C48.4065 21.5325 49.1942 21.2257 49.8409 20.6122C50.5041 19.9821 50.8524 19.1447 50.8855 18.1001V16.16C50.8855 15.049 50.5622 14.1702 49.9155 13.5235C49.2688 12.8768 48.4646 12.5535 47.5028 12.5535ZM57.2467 14.0209C57.2467 13.0426 57.6613 12.2633 58.4904 11.6829C59.336 11.1025 60.4719 10.8124 61.8979 10.8124C63.324 10.8124 64.4349 11.1108 65.2309 11.7078C66.0434 12.3047 66.4662 13.0592 66.4994 13.9712H64.5842C64.4349 12.8934 63.5229 12.3545 61.8482 12.3545C61.0357 12.3545 60.4056 12.5369 59.9578 12.9017C59.5267 13.2665 59.3112 13.6644 59.3112 14.0956C59.3112 14.5101 59.477 14.8666 59.8086 15.1651C60.1402 15.447 60.6709 15.6957 61.4005 15.9113L63.7882 16.7072C64.7997 17.0223 65.5708 17.4285 66.1014 17.926C66.6486 18.4068 66.9222 19.0784 66.9222 19.9407C66.9222 20.7863 66.4828 21.5574 65.604 22.2538C64.7251 22.9337 63.4981 23.2736 61.9228 23.2736C60.3475 23.2736 59.1205 22.9254 58.2416 22.2289C57.3628 21.5159 56.8985 20.6039 56.8488 19.4929H58.7391C58.7722 20.2391 59.0707 20.8029 59.6345 21.1843C60.2149 21.5491 60.9362 21.7315 61.7984 21.7315C62.6607 21.7315 63.3737 21.5491 63.9375 21.1843C64.5013 20.8195 64.7832 20.3884 64.7832 19.8909C64.7832 19.3769 64.6173 18.9872 64.2857 18.7219C63.9541 18.4566 63.4152 18.2244 62.669 18.0255L60.3558 17.2544C58.2831 16.6409 57.2467 15.5631 57.2467 14.0209ZM83.1056 22.6518C81.6796 23.3151 80.3779 23.456 79.2006 23.0746C78.3549 22.8093 77.758 22.2538 77.4098 21.4081C77.2274 20.9936 77.1362 20.4961 77.1362 19.9158V12.6032H75.221V11.1108H77.1362V7.80276H79.0762V11.1108H82.8071V12.6032H79.0762V19.8909C79.0762 21.1014 79.64 21.7066 80.7676 21.7066C81.3811 21.7066 82.0692 21.5574 82.832 21.2589L83.1056 22.6518ZM90.5171 10.8124C92.1753 10.8124 93.5101 11.3513 94.5216 12.4291C95.5497 13.5069 96.0637 15.049 96.0637 17.0554C96.0637 19.0452 95.5497 20.5791 94.5216 21.6569C93.5101 22.7347 92.1753 23.2736 90.5171 23.2736C88.8589 23.2736 87.5158 22.7347 86.4877 21.6569C85.4762 20.5791 84.9705 19.0452 84.9705 17.0554C84.9705 15.049 85.4762 13.5069 86.4877 12.4291C87.5158 11.3513 88.8589 10.8124 90.5171 10.8124ZM94.0739 17.0554C94.0739 15.6294 93.7754 14.5184 93.1785 13.7225C92.5815 12.91 91.7027 12.5037 90.542 12.5037C89.3978 12.5037 88.519 12.91 87.9055 13.7225C87.2919 14.5184 86.9852 15.6294 86.9852 17.0554C86.9852 18.4649 87.2754 19.5759 87.8557 20.3884C88.4361 21.1843 89.2983 21.5823 90.4425 21.5823C91.6032 21.5823 92.4986 21.1843 93.1287 20.3884C93.7588 19.5759 94.0739 18.4649 94.0739 17.0554ZM113.529 12.8768V6.06167H115.469V23H113.877L113.628 21.0102C113.247 21.7564 112.741 22.3201 112.111 22.7015C111.481 23.0829 110.793 23.2736 110.047 23.2736C108.538 23.2736 107.269 22.6932 106.241 21.5325C105.23 20.3718 104.724 18.8628 104.724 17.0057C104.724 15.1319 105.221 13.6313 106.216 12.5037C107.228 11.3761 108.496 10.8124 110.022 10.8124C111.564 10.8124 112.733 11.5005 113.529 12.8768ZM110.146 12.5535C109.184 12.5535 108.372 12.9597 107.709 13.7722C107.062 14.5847 106.739 15.6708 106.739 17.0305C106.739 18.3903 107.07 19.4847 107.733 20.3137C108.397 21.1263 109.193 21.5325 110.121 21.5325C111.05 21.5325 111.837 21.2257 112.484 20.6122C113.147 19.9821 113.496 19.1447 113.529 18.1001V16.16C113.529 15.049 113.205 14.1702 112.559 13.5235C111.912 12.8768 111.108 12.5535 110.146 12.5535ZM124.79 10.8124C126.448 10.8124 127.783 11.3513 128.794 12.4291C129.823 13.5069 130.337 15.049 130.337 17.0554C130.337 19.0452 129.823 20.5791 128.794 21.6569C127.783 22.7347 126.448 23.2736 124.79 23.2736C123.132 23.2736 121.789 22.7347 120.761 21.6569C119.749 20.5791 119.243 19.0452 119.243 17.0554C119.243 15.049 119.749 13.5069 120.761 12.4291C121.789 11.3513 123.132 10.8124 124.79 10.8124ZM128.347 17.0554C128.347 15.6294 128.048 14.5184 127.451 13.7225C126.854 12.91 125.976 12.5037 124.815 12.5037C123.671 12.5037 122.792 12.91 122.178 13.7225C121.565 14.5184 121.258 15.6294 121.258 17.0554C121.258 18.4649 121.548 19.5759 122.129 20.3884C122.709 21.1843 123.571 21.5823 124.715 21.5823C125.876 21.5823 126.771 21.1843 127.402 20.3884C128.032 19.5759 128.347 18.4649 128.347 17.0554ZM141.981 12.8768C142.777 11.5005 143.938 10.8124 145.464 10.8124C146.989 10.8124 148.258 11.3844 149.269 12.5286C150.281 13.6561 150.786 15.1568 150.786 17.0305C150.786 18.8877 150.272 20.3967 149.244 21.5574C148.216 22.7015 146.964 23.2736 145.489 23.2736C144.693 23.2736 143.971 23.0746 143.325 22.6767C142.695 22.2787 142.197 21.69 141.832 20.9107L141.385 23H140.017V6.06167H141.981V12.8768ZM145.339 12.5535C144.394 12.5535 143.607 12.8602 142.976 13.4737C142.346 14.0707 142.015 14.9081 141.981 15.9859V17.926C141.981 19.0204 142.305 19.8992 142.952 20.5625C143.615 21.2092 144.411 21.5325 145.339 21.5325C146.268 21.5325 147.072 21.1263 147.752 20.3137C148.432 19.4847 148.772 18.3903 148.772 17.0305C148.772 15.6708 148.432 14.5847 147.752 13.7722C147.089 12.9597 146.284 12.5535 145.339 12.5535ZM158.646 21.6817C160.287 21.6817 161.224 20.9604 161.456 19.5178H163.471C163.289 20.7117 162.758 21.6403 161.879 22.3036C161.017 22.9503 159.939 23.2736 158.646 23.2736C157.054 23.2736 155.761 22.7098 154.766 21.5823C153.771 20.4381 153.273 18.9209 153.273 17.0305C153.273 15.1402 153.771 13.6313 154.766 12.5037C155.777 11.3761 157.112 10.8124 158.77 10.8124C160.445 10.8124 161.689 11.4591 162.501 12.7524C163.33 14.0458 163.62 15.6211 163.372 17.4783H155.238C155.238 18.7053 155.537 19.7168 156.134 20.5127C156.731 21.2921 157.568 21.6817 158.646 21.6817ZM160.088 12.6778C159.707 12.4788 159.243 12.3793 158.696 12.3793C157.684 12.3793 156.88 12.7276 156.283 13.424C155.703 14.1039 155.363 14.9578 155.263 15.9859H161.606C161.606 14.3277 161.1 13.225 160.088 12.6778ZM173.561 22.6518C172.135 23.3151 170.833 23.456 169.656 23.0746C168.81 22.8093 168.213 22.2538 167.865 21.4081C167.682 20.9936 167.591 20.4961 167.591 19.9158V12.6032H165.676V11.1108H167.591V7.80276H169.531V11.1108H173.262V12.6032H169.531V19.8909C169.531 21.1014 170.095 21.7066 171.223 21.7066C171.836 21.7066 172.524 21.5574 173.287 21.2589L173.561 22.6518ZM182.912 22.6518C181.486 23.3151 180.185 23.456 179.007 23.0746C178.162 22.8093 177.565 22.2538 177.216 21.4081C177.034 20.9936 176.943 20.4961 176.943 19.9158V12.6032H175.028V11.1108H176.943V7.80276H178.883V11.1108H182.614V12.6032H178.883V19.8909C178.883 21.1014 179.447 21.7066 180.574 21.7066C181.188 21.7066 181.876 21.5574 182.639 21.2589L182.912 22.6518ZM190.15 21.6817C191.791 21.6817 192.728 20.9604 192.96 19.5178H194.975C194.793 20.7117 194.262 21.6403 193.383 22.3036C192.521 22.9503 191.443 23.2736 190.15 23.2736C188.558 23.2736 187.264 22.7098 186.27 21.5823C185.275 20.4381 184.777 18.9209 184.777 17.0305C184.777 15.1402 185.275 13.6313 186.27 12.5037C187.281 11.3761 188.616 10.8124 190.274 10.8124C191.949 10.8124 193.192 11.4591 194.005 12.7524C194.834 14.0458 195.124 15.6211 194.875 17.4783H186.742C186.742 18.7053 187.041 19.7168 187.638 20.5127C188.234 21.2921 189.072 21.6817 190.15 21.6817ZM191.592 12.6778C191.211 12.4788 190.747 12.3793 190.199 12.3793C189.188 12.3793 188.384 12.7276 187.787 13.424C187.206 14.1039 186.866 14.9578 186.767 15.9859H193.11C193.11 14.3277 192.604 13.225 191.592 12.6778ZM203.697 12.7773C201.823 12.7773 200.853 14.2531 200.786 17.2047V23H198.822V11.086H200.786V13.3743C201.383 11.7161 202.436 10.887 203.945 10.887C204.426 10.887 204.882 10.9616 205.313 11.1108L205.214 13.026C204.716 12.8602 204.211 12.7773 203.697 12.7773Z" fill="black"/>
</svg>
